<svg xmlns="http://www.w3.org/2000/svg" viewBox="0 0 1200 260" role="img" aria-label="Banner neon com o texto Pixel's">
  <defs>
    <linearGradient id="bg" x1="0" x2="1" y1="0" y2="1"><stop stop-color="#070b1a"/><stop offset=".55" stop-color="#111b3d"/><stop offset="1" stop-color="#07111f"/></linearGradient>
    <linearGradient id="glow" x1="0" x2="1"><stop stop-color="#22d3ee"/><stop offset=".5" stop-color="#a78bfa"/><stop offset="1" stop-color="#f0abfc"/></linearGradient>
    <filter id="blur"><feGaussianBlur stdDeviation="22"/></filter>
    <filter id="soft"><feGaussianBlur stdDeviation="4"/></filter>
  </defs>
  <rect width="1200" height="260" rx="28" fill="url(#bg)"/>
  <circle cx="150" cy="70" r="90" fill="#22d3ee" opacity=".16" filter="url(#blur)"/><circle cx="1040" cy="205" r="120" fill="#8b5cf6" opacity=".18" filter="url(#blur)"/>
  <g fill="none" stroke="#6ee7f9" stroke-opacity=".14"><path d="M0 205h1200M0 145h1200M0 85h1200"/><path d="M140 0v260M320 0v260M500 0v260M680 0v260M860 0v260M1040 0v260"/></g>
  <path d="M0 224 C160 174 210 256 370 206 S620 174 760 213 S1010 254 1200 170" fill="none" stroke="url(#glow)" stroke-width="2" opacity=".8"><animate attributeName="d" dur="8s" repeatCount="indefinite" values="M0 224 C160 174 210 256 370 206 S620 174 760 213 S1010 254 1200 170;M0 210 C160 260 240 164 380 224 S620 252 770 190 S1040 160 1200 212;M0 224 C160 174 210 256 370 206 S620 174 760 213 S1010 254 1200 170"/></path>
  <g font-family="Inter,Segoe UI,sans-serif" fill="white"><text x="88" y="113" font-size="22" letter-spacing="6" fill="#67e8f9">HELLO, WORLD</text><text x="84" y="174" font-size="64" font-weight="800">PIXEL'S</text><text x="90" y="207" font-size="16" letter-spacing="2" fill="#c4b5fd">CODE · CREATE · REPEAT</text></g>
  <g fill="#fff"><circle cx="1020" cy="72" r="2"/><circle cx="1090" cy="105" r="3"/><circle cx="960" cy="140" r="2"/><circle cx="1135" cy="48" r="2"/></g>
</svg>
